<?xml version="1.0" ?><!DOCTYPE svg  PUBLIC '-//W3C//DTD SVG 1.1//EN'  'http://www.w3.org/Graphics/SVG/1.1/DTD/svg11.dtd'><svg enable-background="new 0 0 128 128" id="Слой_1" version="1.1" viewBox="0 0 128 128" xml:space="preserve" xmlns="http://www.w3.org/2000/svg" xmlns:xlink="http://www.w3.org/1999/xlink"><g><path d="M17,2v124h94V23.2L89.8,2H17z M91,8.8L104.2,22H91V8.8z M21,122V6h66v20h20v96H21z" fill="#3EBBC4"/><rect fill="#3EBBC4" height="4" width="70" x="29" y="77"/><rect fill="#3EBBC4" height="4" width="70" x="29" y="87"/><rect fill="#3EBBC4" height="4" width="25" x="74" y="97"/><path d="M64,63.6c8.7,0,17.4-1.5,25.7-4.4l1.3-0.5v-7.3l-3.1-0.9v-2.9c0-9-5-17.2-12.9-21.2v-0.2   c0-2.3-1.9-4.2-4.2-4.2H66v-0.6h-4V22h-4.8c-2.3,0-4.2,1.9-4.2,4.2v0.2c-7.9,4.1-12.9,12.3-12.9,21.2v2.9L37,51.5v7.3l1.3,0.5   C46.6,62.1,55.3,63.6,64,63.6z M41,54.5l3.1-0.9v-5.9c0-6.7,3.4-13,8.9-16.6v6.1h4v-11c0-0.1,0.1-0.2,0.2-0.2H62v17.3h4V26h4.8   c0.1,0,0.2,0.1,0.2,0.2v11h4v-6.1c5.5,3.7,8.9,9.9,8.9,16.6v5.9l3.1,0.9v1.4c-14.9,4.9-31.1,4.9-46,0V54.5z" fill="#3EBBC4"/><rect fill="#3EBBC4" height="4" width="30.7" x="48.6" y="50.1"/></g></svg>